<?xml version="1.0" encoding="utf-8" ?>
<svg baseProfile="full" height="100%" version="1.1" width="100%" xmlns="http://www.w3.org/2000/svg" xmlns:ev="http://www.w3.org/2001/xml-events" xmlns:xlink="http://www.w3.org/1999/xlink"><defs /><text text-anchor="middle" x="250.0" y="30">CHR 20</text><g id="ch" stroke="black" stroke-width="3"><line x1="50" x2="450.0" y1="50" y2="50" /></g><g id="genes" stroke="black" stroke-width="0.01"><rect fill="antiquewhite" height="20" width="0.213884369085" x="274.91692072" y="40.0" /><rect fill="aqua" height="20" width="0.597354295851" x="207.002529026" y="40.0" /><rect fill="aquamarine" height="20" width="0.00924831567767" x="446.383418223" y="40.0" /><rect fill="bisque" height="20" width="0.0973555915464" x="334.536044977" y="40.0" /><rect fill="black" height="20" width="0.327415202682" x="205.211750972" y="40.0" /><rect fill="black" height="20" width="0.346445629439" x="266.448734608" y="40.0" /><rect fill="blanchedalmond" height="20" width="0.149450298582" x="290.508606466" y="40.0" /><rect fill="blue" height="20" width="0.203034667203" x="326.949949559" y="40.0" /><rect fill="blueviolet" height="20" width="0.0886410712703" x="72.7667773252" y="40.0" /><rect fill="brown" height="20" width="0.0451119183525" x="289.470517169" y="40.0" /><rect fill="burlywood" height="20" width="0.262683199862" x="365.863615709" y="40.0" /><rect fill="cadetblue" height="20" width="0.176543518671" x="76.1971327832" y="40.0" /><rect fill="chartreuse" height="20" width="0.042014663639" x="436.704311036" y="40.0" /><rect fill="chocolate" height="20" width="0.19572911851" x="262.774993274" y="40.0" /><rect fill="coral" height="20" width="0.288112964514" x="55.3993963488" y="40.0" /><rect fill="cornflowerblue" height="20" width="0.447997101119" x="111.983117882" y="40.0" /><rect fill="crimson" height="20" width="0.0515981531734" x="73.7136993329" y="40.0" /><rect fill="cyan" height="20" width="0.34777391102" x="412.851154551" y="40.0" /><rect fill="darkblue" height="20" width="0.186542872065" x="204.94296016" y="40.0" /><rect fill="darkcyan" height="20" width="0.105567351037" x="442.729321802" y="40.0" /><rect fill="darkgoldenrod" height="20" width="0.712573412579" x="353.654417629" y="40.0" /><rect fill="darkgray" height="20" width="0.0582395610762" x="445.372583526" y="40.0" /><rect fill="darkcyan" height="20" width="0.304766139657" x="289.599242551" y="40.0" /><rect fill="darkgreen" height="20" width="0.464122687783" x="262.243066157" y="40.0" /><rect fill="darkkhaki" height="20" width="0.50260561208" x="250.845758469" y="40.0" /><rect fill="darkmagenta" height="20" width="0.042920874437" x="416.366544857" y="40.0" /><rect fill="darkmagenta" height="20" width="1.06833563385" x="370.255603583" y="40.0" /><rect fill="darkolivegreen" height="20" width="1.11775515696" x="71.5444789596" y="40.0" /><rect fill="darkorange" height="20" width="0.142436475283" x="399.880472503" y="40.0" /><rect fill="darkorchid" height="20" width="0.0134566096572" x="69.1331885786" y="40.0" /><rect fill="darkred" height="20" width="0.502344921302" x="358.067881458" y="40.0" /><rect fill="darksalmon" height="20" width="0.261925955223" x="159.823264532" y="40.0" /><rect fill="darkseagreen" height="20" width="0.830591851703" x="384.781436464" y="40.0" /><rect fill="darkslateblue" height="20" width="0.544856138803" x="365.280009749" y="40.0" /><rect fill="darkslategray" height="20" width="0.36954159094" x="246.538824065" y="40.0" /><rect fill="darkorange" height="20" width="0.467474426351" x="158.583326091" y="40.0" /><rect fill="darkturquoise" height="20" width="0.00687727098716" x="441.072954671" y="40.0" /><rect fill="darkviolet" height="20" width="0.0287008132171" x="442.500273919" y="40.0" /><rect fill="darkturquoise" height="20" width="0.220091292359" x="282.712897042" y="40.0" /><rect fill="darkorange" height="20" width="0.0783065440197" x="92.0063711895" y="40.0" /><rect fill="deeppink" height="20" width="0.607539856943" x="404.842032484" y="40.0" /><rect fill="crimson" height="20" width="0.480142756753" x="287.477809279" y="40.0" /><rect fill="deepskyblue" height="20" width="0.0454098506696" x="256.293270887" y="40.0" /><rect fill="dimgray" height="20" width="0.121928800787" x="255.832549593" y="40.0" /><rect fill="dimgray" height="20" width="0.0648499343626" x="256.177294525" y="40.0" /><rect fill="dimgray" height="20" width="0.225919593312" x="256.525937406" y="40.0" /><rect fill="dimgray" height="20" width="0.0999873270144" x="254.875640646" y="40.0" /><rect fill="dimgray" height="20" width="0.112990831273" x="255.172480544" y="40.0" /><rect fill="dimgray" height="20" width="0.199285685545" x="255.322812226" y="40.0" /><rect fill="dimgray" height="20" width="0.0769596416693" x="255.024904737" y="40.0" /><rect fill="darkkhaki" height="20" width="0.222741648596" x="123.804805329" y="40.0" /><rect fill="cyan" height="20" width="0.00525105708945" x="67.4724083252" y="40.0" /><rect fill="darkred" height="20" width="0.0401339658871" x="270.489689936" y="40.0" /><rect fill="aquamarine" height="20" width="0.982680092676" x="70.1681868275" y="40.0" /><rect fill="aquamarine" height="20" width="0.0423498374957" x="277.208982312" y="40.0" /><rect fill="aquamarine" height="20" width="0.0923528113879" x="73.2977361628" y="40.0" /><rect fill="dodgerblue" height="20" width="0.123610876994" x="51.6812258587" y="40.0" /><rect fill="firebrick" height="20" width="0.115777739822" x="437.241451969" y="40.0" /><rect fill="forestgreen" height="20" width="0.299639221033" x="400.145650886" y="40.0" /><rect fill="fuchsia" height="20" width="0.992865653768" x="257.870325952" y="40.0" /><rect fill="darkseagreen" height="20" width="0.0498540077335" x="397.571813598" y="40.0" /><rect fill="gainsboro" height="20" width="0.134876442735" x="248.686407103" y="40.0" /><rect fill="coral" height="20" width="0.0719444476643" x="336.252575815" y="40.0" /><rect fill="deepskyblue" height="20" width="0.0433926006057" x="193.251748448" y="40.0" /><rect fill="darkorange" height="20" width="0.120097758421" x="73.5042032586" y="40.0" /><rect fill="forestgreen" height="20" width="0.836476014967" x="336.596817987" y="40.0" /><rect fill="forestgreen" height="20" width="0.469144088712" x="422.157355995" y="40.0" /><rect fill="gold" height="20" width="4.27154873458" x="430.189108504" y="40.0" /><rect fill="goldenrod" height="20" width="0.265172176095" x="257.055754169" y="40.0" /><rect fill="green" height="20" width="0.441318451676" x="81.8215673422" y="40.0" /><rect fill="blanchedalmond" height="20" width="0.0121345349999" x="361.530034984" y="40.0" /><rect fill="blanchedalmond" height="20" width="0.0176214551738" x="73.4860728357" y="40.0" /><rect fill="darkgoldenrod" height="20" width="0.39796309261" x="270.067482601" y="40.0" /><rect fill="darkgoldenrod" height="20" width="1.91289926984" x="174.464415841" y="40.0" /><rect fill="darkmagenta" height="20" width="1.34313474794" x="306.979664273" y="40.0" /><rect fill="greenyellow" height="20" width="0.0864686481245" x="86.6917924473" y="40.0" /><rect fill="grey" height="20" width="0.267282530008" x="259.864169708" y="40.0" /><rect fill="burlywood" height="20" width="0.218347146919" x="443.166525063" y="40.0" /><rect fill="honeydew" height="20" width="0.472570310359" x="273.167220084" y="40.0" /><rect fill="hotpink" height="20" width="0.258611458195" x="442.855949244" y="40.0" /><rect fill="indianred" height="20" width="0.154645493362" x="439.895606844" y="40.0" /><rect fill="indigo" height="20" width="0.256383172739" x="252.983093877" y="40.0" /><rect fill="darkorchid" height="20" width="0.0441808798615" x="246.373943355" y="40.0" /><rect fill="crimson" height="20" width="0.241604488425" x="271.12804096" y="40.0" /><rect fill="blueviolet" height="20" width="0.040767072061" x="67.3425719041" y="40.0" /><rect fill="khaki" height="20" width="0.210805735141" x="87.2793398043" y="40.0" /><rect fill="antiquewhite" height="20" width="0.134553682725" x="174.351785011" y="40.0" /><rect fill="lavender" height="20" width="0.314777906897" x="354.42628578" y="40.0" /><rect fill="darkslategray" height="20" width="0.435912221505" x="52.9395430001" y="40.0" /><rect fill="burlywood" height="20" width="0.0230587199614" x="197.399239407" y="40.0" /><rect fill="darkgoldenrod" height="20" width="0.0152317897134" x="195.554852156" y="40.0" /><rect fill="burlywood" height="20" width="0.0183849067364" x="197.872306271" y="40.0" /><rect fill="indianred" height="20" width="0.0730368661604" x="196.64915135" y="40.0" /><rect fill="burlywood" height="20" width="0.0211035391303" x="197.014950166" y="40.0" /><rect fill="darkcyan" height="20" width="0.0236794122888" x="198.19609663" y="40.0" /><rect fill="darkcyan" height="20" width="0.066401665181" x="204.857956345" y="40.0" /><rect fill="darkcyan" height="20" width="0.0305194417363" x="195.807461519" y="40.0" /><rect fill="darkcyan" height="20" width="0.0215131960663" x="196.498347942" y="40.0" /><rect fill="darkcyan" height="20" width="0.0249332107901" x="196.264483487" y="40.0" /><rect fill="lawngreen" height="20" width="0.0868845119838" x="400.023120013" y="40.0" /><rect fill="darkcyan" height="20" width="0.03255531257" x="195.488326352" y="40.0" /><rect fill="lightblue" height="20" width="0.1842587243" x="406.873049503" y="40.0" /><rect fill="lawngreen" height="20" width="1.10591234735" x="283.963486563" y="40.0" /><rect fill="lightcoral" height="20" width="0.0538512663217" x="334.836602822" y="40.0" /><rect fill="darkviolet" height="20" width="0.0748679085261" x="416.178586807" y="40.0" /><rect fill="dodgerblue" height="20" width="0.127390893267" x="386.126302944" y="40.0" /><rect fill="greenyellow" height="20" width="0.0282601216647" x="331.831911956" y="40.0" /><rect fill="lightcyan" height="20" width="0.088976245127" x="69.8022576659" y="40.0" /><rect fill="lightgray" height="20" width="0.153819972566" x="355.500387646" y="40.0" /><rect fill="lightgreen" height="20" width="0.0122152250024" x="244.01392216" y="40.0" /><rect fill="lightgreen" height="20" width="0.0333497987491" x="244.296635101" y="40.0" /><rect fill="forestgreen" height="20" width="0.0329277279665" x="244.702605125" y="40.0" /><rect fill="lightgreen" height="20" width="0.0834148418739" x="244.755649491" y="40.0" /><rect fill="lightgreen" height="20" width="0.0496119377259" x="244.927463334" y="40.0" /><rect fill="lightgreen" height="20" width="0.0604430188383" x="245.148889115" y="40.0" /><rect fill="lightgreen" height="20" width="0.0698340937513" x="245.303981507" y="40.0" /><rect fill="lightgreen" height="20" width="0.0611009527053" x="50.5415540556" y="40.0" /><rect fill="honeydew" height="20" width="0.0209918145113" x="50.8836734595" y="40.0" /><rect fill="lightgreen" height="20" width="0.0105083211022" x="50.9774042079" y="40.0" /><rect fill="lightgreen" height="20" width="0.0113462557441" x="51.1659891577" y="40.0" /><rect fill="lightgreen" height="20" width="0.016311794363" x="51.4105729693" y="40.0" /><rect fill="lightgreen" height="20" width="0.0208552621993" x="51.5997475768" y="40.0" /><rect fill="lightpink" height="20" width="0.480564827535" x="291.836000456" y="40.0" /><rect fill="lightsalmon" height="20" width="0.373743677997" x="440.277295383" y="40.0" /><rect fill="lightseagreen" height="20" width="1.37980525064" x="275.350641898" y="40.0" /><rect fill="crimson" height="20" width="0.253546608803" x="446.592492227" y="40.0" /><rect fill="lightskyblue" height="20" width="0.291545393084" x="253.353609955" y="40.0" /><rect fill="lightcyan" height="20" width="0.120972934602" x="334.227039508" y="40.0" /><rect fill="darkkhaki" height="20" width="1.08977434684" x="388.125850862" y="40.0" /><rect fill="darkred" height="20" width="0.147029598505" x="366.14881142" y="40.0" /><rect fill="lightslategray" height="20" width="0.136719898948" x="278.115546904" y="40.0" /><rect fill="lightsteelblue" height="20" width="0.248624518647" x="159.054791569" y="40.0" /><rect fill="goldenrod" height="20" width="1.21943697402" x="165.246756157" y="40.0" /><rect fill="lime" height="20" width="0.143441996853" x="247.675839304" y="40.0" /><rect fill="limegreen" height="20" width="0.152373759444" x="264.240702343" y="40.0" /><rect fill="cornflowerblue" height="20" width="0.520847759581" x="164.104148479" y="40.0" /><rect fill="magenta" height="20" width="0.0665444244163" x="259.022380567" y="40.0" /><rect fill="indigo" height="20" width="0.417291451684" x="66.7144871312" y="40.0" /><rect fill="lightcoral" height="20" width="0.198664993218" x="267.958326624" y="40.0" /><rect fill="cadetblue" height="20" width="0.15867999349" x="418.073200481" y="40.0" /><rect fill="maroon" height="20" width="0.0701506468382" x="444.065225484" y="40.0" /><rect fill="cornflowerblue" height="20" width="0.637364123273" x="253.952813914" y="40.0" /><rect fill="maroon" height="20" width="0.149177193958" x="261.583450214" y="40.0" /><rect fill="maroon" height="20" width="0.037725679657" x="268.973468925" y="40.0" /><rect fill="mediumaquamarine" height="20" width="0.415466616242" x="337.790508643" y="40.0" /><rect fill="indianred" height="20" width="0.0425857005802" x="306.718135561" y="40.0" /><rect fill="magenta" height="20" width="0.192638070719" x="206.387733276" y="40.0" /><rect fill="mediumblue" height="20" width="0.877007223943" x="274.017196157" y="40.0" /><rect fill="lightseagreen" height="20" width="0.0442305352477" x="332.667171414" y="40.0" /><rect fill="lightseagreen" height="20" width="0.0648002789763" x="332.644578213" y="40.0" /><rect fill="mediumorchid" height="20" width="0.0969086930706" x="270.606597336" y="40.0" /><rect fill="lightcyan" height="20" width="0.437985333878" x="135.123744403" y="40.0" /><rect fill="mediumpurple" height="20" width="1.82620096556" x="341.071333112" y="40.0" /><rect fill="mediumseagreen" height="20" width="0.147402013901" x="55.174805037" y="40.0" /><rect fill="darkseagreen" height="20" width="0.0555829979151" x="400.797843349" y="40.0" /><rect fill="mediumslateblue" height="20" width="0.0203214667978" x="400.897520329" y="40.0" /><rect fill="darkorange" height="20" width="0.060505088071" x="399.815461188" y="40.0" /><rect fill="mediumspringgreen" height="20" width="0.092582467549" x="422.004274646" y="40.0" /><rect fill="mediumturquoise" height="20" width="0.0414001782349" x="269.01582497" y="40.0" /><rect fill="lightslategray" height="20" width="0.166308302193" x="291.612631908" y="40.0" /><rect fill="mediumvioletred" height="20" width="0.0830362195542" x="69.5302020119" y="40.0" /><rect fill="darkorange" height="20" width="0.302270956501" x="87.706096814" y="40.0" /><rect fill="darkkhaki" height="20" width="0.0517098777923" x="324.984316269" y="40.0" /><rect fill="midnightblue" height="20" width="0.150170301681" x="58.4971414092" y="40.0" /><rect fill="mistyrose" height="20" width="0.0907948736462" x="138.901687565" y="40.0" /><rect fill="darkseagreen" height="20" width="0.0547264425034" x="444.436883636" y="40.0" /><rect fill="moccasin" height="20" width="0.0276208085675" x="190.158565476" y="40.0" /><rect fill="burlywood" height="20" width="0.00818072487459" x="247.655133008" y="40.0" /><rect fill="indigo" height="20" width="0.0774189539916" x="437.70613328" y="40.0" /><rect fill="darkred" height="20" width="0.21372298908" x="400.638356455" y="40.0" /><rect fill="navajowhite" height="20" width="0.209905731267" x="324.638348572" y="40.0" /><rect fill="navy" height="20" width="0.132821951132" x="269.932066156" y="40.0" /><rect fill="olive" height="20" width="0.0150269612454" x="269.930092354" y="40.0" /><rect fill="darkkhaki" height="20" width="0.0254918338847" x="72.7129446797" y="40.0" /><rect fill="khaki" height="20" width="0.174662820919" x="266.27850353" y="40.0" /><rect fill="olivedrab" height="20" width="0.0231456168872" x="198.873365063" y="40.0" /><rect fill="gainsboro" height="20" width="0.0667430459611" x="281.214607833" y="40.0" /><rect fill="mediumspringgreen" height="20" width="0.0642788974214" x="440.652075618" y="40.0" /><rect fill="lightpink" height="20" width="0.278697061908" x="207.703812046" y="40.0" /><rect fill="fuchsia" height="20" width="0.244794846987" x="444.683366766" y="40.0" /><rect fill="darkorchid" height="20" width="0.443633634057" x="415.213615066" y="40.0" /><rect fill="orange" height="20" width="0.0131897119564" x="68.8915282278" y="40.0" /><rect fill="orangered" height="20" width="0.413517642334" x="84.4136902258" y="40.0" /><rect fill="orchid" height="20" width="0.169989007694" x="266.798085077" y="40.0" /><rect fill="cornflowerblue" height="20" width="0.00517657401019" x="321.404944997" y="40.0" /><rect fill="lightcyan" height="20" width="0.06753753214" x="195.007271178" y="40.0" /><rect fill="bisque" height="20" width="0.356854639769" x="98.9290582342" y="40.0" /><rect fill="crimson" height="20" width="0.308285465153" x="248.945471667" y="40.0" /><rect fill="lightpink" height="20" width="0.100260431638" x="444.500163219" y="40.0" /><rect fill="crimson" height="20" width="0.394108593257" x="245.607636607" y="40.0" /><rect fill="chocolate" height="20" width="0.489701418594" x="325.312426647" y="40.0" /><rect fill="burlywood" height="20" width="0.0328780725803" x="436.163545259" y="40.0" /><rect fill="cornflowerblue" height="20" width="0.126894339405" x="73.1683776749" y="40.0" /><rect fill="coral" height="20" width="0.00764692947308" x="246.171566621" y="40.0" /><rect fill="darkorchid" height="20" width="0.0361491211454" x="66.5004537959" y="40.0" /><rect fill="limegreen" height="20" width="0.349853230316" x="320.565564142" y="40.0" /><rect fill="lightseagreen" height="20" width="0.0175531790177" x="176.423364274" y="40.0" /><rect fill="orange" height="20" width="0.489602107821" x="132.066518138" y="40.0" /><rect fill="black" height="20" width="0.91960533837" x="263.289963078" y="40.0" /><rect fill="magenta" height="20" width="0.0931162629505" x="69.9171974711" y="40.0" /><rect fill="mediumblue" height="20" width="0.226074766394" x="116.027288397" y="40.0" /><rect fill="dimgray" height="20" width="0.470999958771" x="323.797906333" y="40.0" /><rect fill="khaki" height="20" width="0.312015826041" x="162.581906753" y="40.0" /><rect fill="darkslategray" height="20" width="1.1849202737" x="355.960314453" y="40.0" /><rect fill="palegoldenrod" height="20" width="0.120867416907" x="366.575779465" y="40.0" /><rect fill="cadetblue" height="20" width="0.0405498297465" x="327.733623277" y="40.0" /><rect fill="lightsteelblue" height="20" width="0.449797108868" x="443.520239" y="40.0" /><rect fill="palegoldenrod" height="20" width="0.0546333386542" x="329.884508399" y="40.0" /><rect fill="darkmagenta" height="20" width="1.87033219003" x="150.999701028" y="40.0" /><rect fill="limegreen" height="20" width="0.355948428971" x="250.344983899" y="40.0" /><rect fill="mediumseagreen" height="20" width="0.748797016804" x="181.12735556" y="40.0" /><rect fill="lightblue" height="20" width="0.268573570049" x="320.048831572" y="40.0" /><rect fill="darkslategray" height="20" width="0.368424344751" x="436.74069602" y="40.0" /><rect fill="palegreen" height="20" width="0.100341121641" x="109.054890104" y="40.0" /><rect fill="deepskyblue" height="20" width="0.190347716031" x="288.012889514" y="40.0" /><rect fill="lawngreen" height="20" width="0.0175035236315" x="445.606218325" y="40.0" /><rect fill="lime" height="20" width="0.122040525406" x="306.5999185" y="40.0" /><rect fill="burlywood" height="20" width="0.0823720787639" x="87.4946455588" y="40.0" /><rect fill="paleturquoise" height="20" width="0.0801748279251" x="435.589348994" y="40.0" /><rect fill="darkkhaki" height="20" width="0.0681209829277" x="69.6301210628" y="40.0" /><rect fill="lightcoral" height="20" width="12.7727805063" x="136.868181569" y="40.0" /><rect fill="palevioletred" height="20" width="0.0210538837441" x="302.533936857" y="40.0" /><rect fill="aquamarine" height="20" width="0.171447634663" x="281.453921966" y="40.0" /><rect fill="mediumpurple" height="20" width="0.0837376018841" x="264.429672122" y="40.0" /><rect fill="lightslategray" height="20" width="0.189385642924" x="253.710557699" y="40.0" /><rect fill="peachpuff" height="20" width="0.093625230659" x="331.132937912" y="40.0" /><rect fill="bisque" height="20" width="0.182011818075" x="73.876786242" y="40.0" /><rect fill="cadetblue" height="20" width="0.00672209790531" x="399.131563761" y="40.0" /><rect fill="lightpink" height="20" width="0.299949567197" x="86.9352403919" y="40.0" /><rect fill="peru" height="20" width="0.137849558983" x="161.531664301" y="40.0" /><rect fill="pink" height="20" width="0.000434484629125" x="438.269777775" y="40.0" /><rect fill="pink" height="20" width="0.000477933092057" x="74.3155846828" y="40.0" /><rect fill="paleturquoise" height="20" width="0.000533795401566" x="442.144102041" y="40.0" /><rect fill="pink" height="20" width="0.000626899250619" x="438.335608403" y="40.0" /><rect fill="pink" height="20" width="0.0007510377161" x="267.182579146" y="40.0" /><rect fill="darkseagreen" height="20" width="0.000428277705851" x="289.069351304" y="40.0" /><rect fill="pink" height="20" width="0.000571036941182" x="212.672199642" y="40.0" /><rect fill="darkseagreen" height="20" width="0.000440691552456" x="446.743115634" y="40.0" /><rect fill="darkseagreen" height="20" width="0.000440691552456" x="446.743463221" y="40.0" /><rect fill="darkseagreen" height="20" width="0.000440691552399" x="446.743810809" y="40.0" /><rect fill="darkseagreen" height="20" width="0.000440691552456" x="446.745021159" y="40.0" /><rect fill="darkseagreen" height="20" width="0.000440691552456" x="446.745716335" y="40.0" /><rect fill="darkolivegreen" height="20" width="0.206150542686" x="114.558264831" y="40.0" /><rect fill="indianred" height="20" width="0.312493759133" x="268.649138564" y="40.0" /><rect fill="indianred" height="20" width="0.0475015838128" x="335.573761858" y="40.0" /><rect fill="green" height="20" width="0.0316863433118" x="366.297523095" y="40.0" /><rect fill="gainsboro" height="20" width="0.032803589501" x="439.772765625" y="40.0" /><rect fill="plum" height="20" width="0.0143317858387" x="68.9059469106" y="40.0" /><rect fill="plum" height="20" width="0.127483997116" x="435.965289923" y="40.0" /><rect fill="orange" height="20" width="0.00954624799482" x="406.019448587" y="40.0" /><rect fill="powderblue" height="20" width="0.307099942808" x="321.03783652" y="40.0" /><rect fill="lightsteelblue" height="20" width="0.167797963778" x="267.089642884" y="40.0" /><rect fill="mediumblue" height="20" width="0.0618395765748" x="276.810187491" y="40.0" /><rect fill="cadetblue" height="20" width="0.0954686868712" x="247.500003375" y="40.0" /><rect fill="purple" height="20" width="0.561490693176" x="448.185244601" y="40.0" /><rect fill="darkviolet" height="20" width="0.102656304022" x="174.244703171" y="40.0" /><rect fill="moccasin" height="20" width="0.0697658175953" x="208.977522357" y="40.0" /><rect fill="red" height="20" width="0.291725393859" x="195.08384599" y="40.0" /><rect fill="khaki" height="20" width="0.961917934326" x="344.840661064" y="40.0" /><rect fill="orangered" height="20" width="0.179795946466" x="335.896999801" y="40.0" /><rect fill="indigo" height="20" width="0.847567786856" x="265.312563509" y="40.0" /><rect fill="gainsboro" height="20" width="0.58538734778" x="277.494699404" y="40.0" /><rect fill="lightskyblue" height="20" width="0.227372013358" x="135.56212698" y="40.0" /><rect fill="mediumorchid" height="20" width="0.107851498802" x="258.906956622" y="40.0" /><rect fill="rosybrown" height="20" width="0.0864314065849" x="416.09183264" y="40.0" /><rect fill="royalblue" height="20" width="0.0165228297543" x="334.827174506" y="40.0" /><rect fill="blanchedalmond" height="20" width="1.09163642382" x="368.954899363" y="40.0" /><rect fill="chocolate" height="20" width="0.194301526157" x="271.388880704" y="40.0" /><rect fill="mediumseagreen" height="20" width="0.824353893813" x="207.982987041" y="40.0" /><rect fill="saddlebrown" height="20" width="0.19806292166" x="442.53069405" y="40.0" /><rect fill="indigo" height="20" width="0.0187200805932" x="183.517188608" y="40.0" /><rect fill="darksalmon" height="20" width="0.0165166228311" x="182.799401379" y="40.0" /><rect fill="darkviolet" height="20" width="0.015380755872" x="282.891302637" y="40.0" /><rect fill="mediumspringgreen" height="20" width="0.8814762087" x="251.371577974" y="40.0" /><rect fill="lightgray" height="20" width="0.0387808566134" x="66.4616605255" y="40.0" /><rect fill="salmon" height="20" width="0.00838555334258" x="447.899906131" y="40.0" /><rect fill="blueviolet" height="20" width="0.186871838998" x="414.278933111" y="40.0" /><rect fill="greenyellow" height="20" width="0.0799327579174" x="52.1524492667" y="40.0" /><rect fill="chartreuse" height="20" width="0.196635329308" x="58.9513888821" y="40.0" /><rect fill="cadetblue" height="20" width="0.334764199838" x="439.228939836" y="40.0" /><rect fill="navy" height="20" width="0.0250821769486" x="194.936226734" y="40.0" /><rect fill="coral" height="20" width="0.0597602572782" x="338.876080903" y="40.0" /><rect fill="gainsboro" height="20" width="0.0568864518025" x="439.824792056" y="40.0" /><rect fill="cadetblue" height="20" width="0.127055719411" x="447.74071717" y="40.0" /><rect fill="dimgray" height="20" width="0.399049304183" x="436.268765023" y="40.0" /><rect fill="burlywood" height="20" width="0.13471506273" x="153.955773065" y="40.0" /><rect fill="palevioletred" height="20" width="0.634403420871" x="161.457590879" y="40.0" /><rect fill="cadetblue" height="20" width="0.00556761017641" x="69.0653096657" y="40.0" /><rect fill="darkorange" height="20" width="0.303971653478" x="328.753309047" y="40.0" /><rect fill="burlywood" height="20" width="1.87233081933" x="109.197841753" y="40.0" /><rect fill="darkorchid" height="20" width="0.254750751918" x="74.1377252964" y="40.0" /><rect fill="gold" height="20" width="0.156731019582" x="364.886801159" y="40.0" /><rect fill="palevioletred" height="20" width="0.0796162048304" x="184.725360016" y="40.0" /><rect fill="aquamarine" height="20" width="0.0364718811557" x="67.5985764546" y="40.0" /><rect fill="sandybrown" height="20" width="0.0831417372499" x="335.112711597" y="40.0" /><rect fill="darkblue" height="20" width="0.04364708446" x="407.277207105" y="40.0" /><rect fill="lightskyblue" height="20" width="0.199403617088" x="448.830168757" y="40.0" /><rect fill="lightcoral" height="20" width="0.0724534153727" x="81.7481208191" y="40.0" /><rect fill="darkviolet" height="20" width="1.60430966545" x="156.921124452" y="40.0" /><rect fill="seagreen" height="20" width="0.0481036553704" x="248.27607982" y="40.0" /><rect fill="burlywood" height="20" width="0.0963811045924" x="62.2819928761" y="40.0" /><rect fill="mediumpurple" height="20" width="0.032871865657" x="162.580386057" y="40.0" /><rect fill="seagreen" height="20" width="0.125410884743" x="386.463947156" y="40.0" /><rect fill="lightsteelblue" height="20" width="1.67712308237" x="419.793027195" y="40.0" /><rect fill="khaki" height="20" width="1.10735856047" x="272.033897963" y="40.0" /><rect fill="indianred" height="20" width="0.0103531480203" x="330.396989226" y="40.0" /><rect fill="darkturquoise" height="20" width="0.253658333422" x="331.894043258" y="40.0" /><rect fill="dimgray" height="20" width="0.858094728728" x="264.514632488" y="40.0" /><rect fill="deeppink" height="20" width="0.573904539724" x="326.405372731" y="40.0" /><rect fill="deeppink" height="20" width="0.0948914430068" x="249.816396106" y="40.0" /><rect fill="blanchedalmond" height="20" width="5.53104519141" x="100.134877219" y="40.0" /><rect fill="salmon" height="20" width="2.56022550497" x="106.289116127" y="40.0" /><rect fill="palevioletred" height="20" width="0.371428495615" x="305.333954429" y="40.0" /><rect fill="dimgray" height="20" width="0.0840044995849" x="334.889218911" y="40.0" /><rect fill="palegreen" height="20" width="0.391929963188" x="407.81914599" y="40.0" /><rect fill="darkred" height="20" width="0.191092546824" x="249.911839965" y="40.0" /><rect fill="green" height="20" width="0.10872046806" x="164.624040373" y="40.0" /><rect fill="sienna" height="20" width="0.00919866029147" x="444.268260151" y="40.0" /><rect fill="coral" height="20" width="0.728190031535" x="290.864033513" y="40.0" /><rect fill="darkorchid" height="20" width="0.0225249245599" x="422.022299551" y="40.0" /><rect fill="olive" height="20" width="0.0606043988435" x="416.414201614" y="40.0" /><rect fill="darkkhaki" height="20" width="1.26392199313" x="351.8070014" y="40.0" /><rect fill="lightseagreen" height="20" width="0.0406553474421" x="79.3085330748" y="40.0" /><rect fill="darkslategray" height="20" width="0.0953010999428" x="79.087107294" y="40.0" /><rect fill="orange" height="20" width="0.058258181846" x="79.3667043598" y="40.0" /><rect fill="mediumseagreen" height="20" width="0.274141180225" x="268.310358484" y="40.0" /><rect fill="cadetblue" height="20" width="0.0765251570402" x="82.9093554736" y="40.0" /><rect fill="antiquewhite" height="20" width="0.322542767913" x="447.125995903" y="40.0" /><rect fill="chocolate" height="20" width="0.0416174205495" x="435.677946617" y="40.0" /><rect fill="chocolate" height="20" width="0.472669621131" x="56.9099380243" y="40.0" /><rect fill="silver" height="20" width="0.398931372641" x="357.266747664" y="40.0" /><rect fill="gainsboro" height="20" width="0.0581526641504" x="444.313427932" y="40.0" /><rect fill="lime" height="20" width="0.465022691658" x="363.513686972" y="40.0" /><rect fill="lime" height="20" width="1.08554122517" x="67.7777703295" y="40.0" /><rect fill="lime" height="20" width="6.93448640588" x="311.142343573" y="40.0" /><rect fill="bisque" height="20" width="0.109024607301" x="259.190408187" y="40.0" /><rect fill="darkred" height="20" width="0.3100047829" x="206.71282709" y="40.0" /><rect fill="darkcyan" height="20" width="0.0884424497255" x="325.196270285" y="40.0" /><rect fill="darkgray" height="20" width="0.35882844137" x="411.923809179" y="40.0" /><rect fill="lightslategray" height="20" width="0.436750156147" x="57.6100355211" y="40.0" /><rect fill="chartreuse" height="20" width="0.175041443239" x="405.973318733" y="40.0" /><rect fill="darkcyan" height="20" width="2.00443897428" x="176.556384847" y="40.0" /><rect fill="darkcyan" height="20" width="0.658213178549" x="288.797817031" y="40.0" /><rect fill="lawngreen" height="20" width="0.711698236397" x="260.995952512" y="40.0" /><rect fill="skyblue" height="20" width="0.270758407041" x="79.669236007" y="40.0" /><rect fill="darkseagreen" height="20" width="0.10735494494" x="437.375552546" y="40.0" /><rect fill="slateblue" height="20" width="0.0664326997973" x="164.744535374" y="40.0" /><rect fill="chartreuse" height="20" width="0.145664075385" x="52.5293088201" y="40.0" /><rect fill="indigo" height="20" width="0.618495076521" x="279.633499646" y="40.0" /><rect fill="lightsalmon" height="20" width="0.0995031869991" x="271.270142261" y="40.0" /><rect fill="pink" height="20" width="0.111265306603" x="406.224059813" y="40.0" /><rect fill="lawngreen" height="20" width="0.254266611903" x="271.595521593" y="40.0" /><rect fill="purple" height="20" width="0.0681085690812" x="331.216147925" y="40.0" /><rect fill="darkgray" height="20" width="0.0596609465058" x="245.364728665" y="40.0" /><rect fill="slategrey" height="20" width="0.0422505267234" x="447.697318362" y="40.0" /><rect fill="springgreen" height="20" width="0.363291219204" x="327.771038611" y="40.0" /><rect fill="darkcyan" height="20" width="0.719605856648" x="173.434110026" y="40.0" /><rect fill="honeydew" height="20" width="0.108968744991" x="359.951006117" y="40.0" /><rect fill="mediumorchid" height="20" width="0.54790373813" x="74.3765056347" y="40.0" /><rect fill="orchid" height="20" width="0.0106262526444" x="271.582642227" y="40.0" /><rect fill="orchid" height="20" width="0.392358240894" x="280.763538304" y="40.0" /><rect fill="mediumseagreen" height="20" width="0.584903207764" x="286.071301845" y="40.0" /><rect fill="steelblue" height="20" width="0.00871452027616" x="437.232042273" y="40.0" /><rect fill="plum" height="20" width="0.425900454265" x="159.326747912" y="40.0" /><rect fill="springgreen" height="20" width="0.271937722463" x="55.9490380254" y="40.0" /><rect fill="lightpink" height="20" width="0.238612751407" x="445.119142435" y="40.0" /><rect fill="lightpink" height="20" width="0.244453466207" x="445.128390751" y="40.0" /><rect fill="tan" height="20" width="0.315708945388" x="400.496174464" y="40.0" /><rect fill="palevioletred" height="20" width="0.125311573971" x="371.408955445" y="40.0" /><rect fill="peru" height="20" width="0.38243337058" x="278.974820948" y="40.0" /><rect fill="fuchsia" height="20" width="0.036341535767" x="273.161342127" y="40.0" /><rect fill="dimgray" height="20" width="0.00413381090021" x="166.775353773" y="40.0" /><rect fill="blanchedalmond" height="20" width="0.0905155620989" x="54.1064756101" y="40.0" /><rect fill="gold" height="20" width="0.143603376858" x="331.33058497" y="40.0" /><rect fill="lightcyan" height="20" width="0.119979826879" x="58.1305046584" y="40.0" /><rect fill="red" height="20" width="0.334689716759" x="164.874589038" y="40.0" /><rect fill="cyan" height="20" width="0.913634278181" x="135.961213526" y="40.0" /><rect fill="lightseagreen" height="20" width="0.0172242120843" x="330.596361809" y="40.0" /><rect fill="lightseagreen" height="20" width="0.019601463698" x="330.685139432" y="40.0" /><rect fill="chocolate" height="20" width="0.160684829707" x="326.184629712" y="40.0" /><rect fill="gainsboro" height="20" width="0.181670437295" x="320.367172253" y="40.0" /><rect fill="forestgreen" height="20" width="0.125119159349" x="72.8847399021" y="40.0" /><rect fill="forestgreen" height="20" width="0.288156412977" x="61.7569492364" y="40.0" /><rect fill="teal" height="20" width="0.350939441889" x="59.7046548837" y="40.0" /><rect fill="cyan" height="20" width="0.129389522561" x="59.1287765423" y="40.0" /><rect fill="orange" height="20" width="0.152640657144" x="59.5229782394" y="40.0" /><rect fill="forestgreen" height="20" width="0.177685592553" x="60.112021465" y="40.0" /><rect fill="mistyrose" height="20" width="0.210402285128" x="277.249848695" y="40.0" /><rect fill="burlywood" height="20" width="0.238730682949" x="335.653098751" y="40.0" /><rect fill="palegoldenrod" height="20" width="0.786069591062" x="338.980835147" y="40.0" /><rect fill="deeppink" height="20" width="0.105132866408" x="440.742249799" y="40.0" /><rect fill="moccasin" height="20" width="0.980302841062" x="80.1182013882" y="40.0" /><rect fill="palegoldenrod" height="20" width="3.16733708421" x="169.251419605" y="40.0" /><rect fill="palegoldenrod" height="20" width="0.166717959129" x="339.922201958" y="40.0" /><rect fill="purple" height="20" width="0.022618028409" x="445.628426697" y="40.0" /><rect fill="orchid" height="20" width="0.0304759932733" x="290.359764445" y="40.0" /><rect fill="mediumorchid" height="20" width="0.11469152825" x="337.6659419" y="40.0" /><rect fill="palegoldenrod" height="20" width="0.0730741077001" x="70.0323296909" y="40.0" /><rect fill="burlywood" height="20" width="0.0989073223648" x="54.7177582418" y="40.0" /><rect fill="palegoldenrod" height="20" width="0.493630401026" x="359.183687641" y="40.0" /><rect fill="palegoldenrod" height="20" width="0.269008054678" x="438.816849786" y="40.0" /><rect fill="pink" height="20" width="0.0144310966111" x="330.877175432" y="40.0" /><rect fill="aquamarine" height="20" width="1.25085641964" x="114.771125058" y="40.0" /><rect fill="cyan" height="20" width="0.0137545419743" x="165.246098223" y="40.0" /><rect fill="dodgerblue" height="20" width="0.414417646208" x="75.578606672" y="40.0" /><rect fill="gold" height="20" width="0.0365401573117" x="360.240639777" y="40.0" /><rect fill="burlywood" height="20" width="0.549858918962" x="113.427493756" y="40.0" /><rect fill="olive" height="20" width="0.266972183844" x="57.8599262521" y="40.0" /><rect fill="antiquewhite" height="20" width="0.0572216256593" x="65.2791733657" y="40.0" /><rect fill="lightcyan" height="20" width="0.0782196470939" x="153.841584297" y="40.0" /><rect fill="cadetblue" height="20" width="0.223058201683" x="257.360613413" y="40.0" /><rect fill="palegreen" height="20" width="0.0587485287846" x="334.486942007" y="40.0" /><rect fill="slategrey" height="20" width="0.169964180001" x="161.362115985" y="40.0" /><rect fill="moccasin" height="20" width="0.535309890808" x="278.274760693" y="40.0" /><rect fill="fuchsia" height="20" width="0.0287318478335" x="52.0209431833" y="40.0" /><rect fill="darkorange" height="20" width="0.0127800550204" x="447.538427334" y="40.0" /><rect fill="mediumblue" height="20" width="0.0320091033219" x="271.065108965" y="40.0" /><rect fill="lightcyan" height="20" width="0.0752092893062" x="359.746519029" y="40.0" /><rect fill="honeydew" height="20" width="0.00711313407152" x="334.813916518" y="40.0" /><rect fill="darkgoldenrod" height="20" width="0.0244801053911" x="73.4466774937" y="40.0" /><rect fill="darkcyan" height="20" width="0.0196324983144" x="332.49235342" y="40.0" /><rect fill="darkcyan" height="20" width="0.0215938860688" x="333.795124546" y="40.0" /><rect fill="peru" height="20" width="0.0883555527997" x="405.841415407" y="40.0" /><rect fill="khaki" height="20" width="0.993877382262" x="130.745734521" y="40.0" /><rect fill="mistyrose" height="20" width="0.380887846684" x="281.795594472" y="40.0" /><rect fill="thistle" height="20" width="0.0415491443935" x="444.392932412" y="40.0" /><rect fill="antiquewhite" height="20" width="0.0392215481659" x="319.740024726" y="40.0" /><rect fill="dodgerblue" height="20" width="0.0419277667132" x="54.0134896926" y="40.0" /><rect fill="blanchedalmond" height="20" width="0.240139654532" x="435.721767495" y="40.0" /><rect fill="salmon" height="20" width="0.00885107258816" x="192.97887348" y="40.0" /><rect fill="deepskyblue" height="20" width="0.465693039372" x="354.842726883" y="40.0" /><rect fill="lightcyan" height="20" width="0.468169601758" x="63.044538228" y="40.0" /><rect fill="palevioletred" height="20" width="0.704392687704" x="329.103454002" y="40.0" /><rect fill="lightsteelblue" height="20" width="0.11158185969" x="445.006766089" y="40.0" /><rect fill="red" height="20" width="0.175488341714" x="414.043827271" y="40.0" /><rect fill="red" height="20" width="0.397094123352" x="414.044950725" y="40.0" /><rect fill="peachpuff" height="20" width="0.808563481005" x="345.799295536" y="40.0" /><rect fill="tomato" height="20" width="0.128235034833" x="254.727748285" y="40.0" /><rect fill="lightslategray" height="20" width="0.435055666093" x="421.568542425" y="40.0" /><rect fill="palegreen" height="20" width="1.2253521719" x="201.878440759" y="40.0" /><rect fill="deeppink" height="20" width="0.0922410867689" x="331.558062501" y="40.0" /><rect fill="deeppink" height="20" width="0.294270232401" x="331.565901845" y="40.0" /><rect fill="blanchedalmond" height="20" width="0.697291967479" x="434.540428616" y="40.0" /><rect fill="blueviolet" height="20" width="1.54892528908" x="133.106928824" y="40.0" /><rect fill="tomato" height="20" width="0.168040033786" x="52.7029909472" y="40.0" /><rect fill="maroon" height="20" width="0.139724049812" x="447.552417739" y="40.0" /><rect fill="peachpuff" height="20" width="0.040971900529" x="53.7477216518" y="40.0" /><rect fill="honeydew" height="20" width="0.128160551753" x="440.049979232" y="40.0" /><rect fill="olive" height="20" width="0.0619513011938" x="401.493732551" y="40.0" /><rect fill="palevioletred" height="20" width="0.127006064024" x="277.008833864" y="40.0" /><rect fill="olive" height="20" width="0.234814114364" x="277.015444237" y="40.0" /><rect fill="khaki" height="20" width="0.243255530016" x="286.653765732" y="40.0" /><rect fill="khaki" height="20" width="0.279789480404" x="64.2511020431" y="40.0" /><rect fill="khaki" height="20" width="0.32179793712" x="64.7781132775" y="40.0" /><rect fill="turquoise" height="20" width="0.0254980408079" x="193.042475823" y="40.0" /><rect fill="palegreen" height="20" width="0.358462232897" x="249.301240095" y="40.0" /><rect fill="burlywood" height="20" width="0.652825569147" x="65.7445250243" y="40.0" /><rect fill="hotpink" height="20" width="0.220221637747" x="361.080157185" y="40.0" /><rect fill="violet" height="20" width="0.450082627338" x="360.849694124" y="40.0" /><rect fill="palegreen" height="20" width="0.27851085421" x="81.4581271568" y="40.0" /><rect fill="aquamarine" height="20" width="0.0247159684755" x="67.4805704293" y="40.0" /><rect fill="cyan" height="20" width="0.0301284055701" x="57.3276515468" y="40.0" /><rect fill="midnightblue" height="20" width="0.263676307586" x="99.5147869628" y="40.0" /><rect fill="salmon" height="20" width="0.0125131573196" x="445.36033106" y="40.0" /><rect fill="lightsteelblue" height="20" width="0.0653651089943" x="334.421173448" y="40.0" /><rect fill="deeppink" height="20" width="0.11393428361" x="328.952352662" y="40.0" /><rect fill="silver" height="20" width="0.593810142662" x="304.662725332" y="40.0" /><rect fill="purple" height="20" width="0.960533790436" x="322.576191419" y="40.0" /><rect fill="chartreuse" height="20" width="0.0567871410301" x="265.406865295" y="40.0" /><rect fill="goldenrod" height="20" width="0.0336042826033" x="339.766271632" y="40.0" /><rect fill="gainsboro" height="20" width="0.219265771563" x="331.624017268" y="40.0" /><rect fill="lightsalmon" height="20" width="0.163347599791" x="446.406570047" y="40.0" /><rect fill="powderblue" height="20" width="0.388143739991" x="247.003219857" y="40.0" /><rect fill="lightcyan" height="20" width="0.215529203752" x="52.252089006" y="40.0" /><rect fill="goldenrod" height="20" width="0.0826948387742" x="86.8519621023" y="40.0" /><rect fill="darkorange" height="20" width="0.561521727793" x="267.25723602" y="40.0" /><rect fill="purple" height="20" width="3.245742939" x="378.795665867" y="40.0" /><rect fill="darkslateblue" height="20" width="0.313207555309" x="285.75761015" y="40.0" /><rect fill="black" height="20" width="0.460932329221" x="247.81900199" y="40.0" /><rect fill="wheat" height="20" width="0.116174982912" x="326.058411927" y="40.0" /><rect fill="mediumblue" height="20" width="0.0459312322246" x="416.327981243" y="40.0" /><rect fill="lightslategray" height="20" width="0.0271925308617" x="334.355144198" y="40.0" /><rect fill="violet" height="20" width="0.216218172236" x="360.849694124" y="40.0" /><rect fill="mediumturquoise" height="20" width="0.326626923427" x="69.2884671781" y="40.0" /><rect fill="deepskyblue" height="20" width="0.102948029416" x="446.86961273" y="40.0" /><rect fill="mediumpurple" height="20" width="0.680123617705" x="269.120318523" y="40.0" /><rect fill="red" height="20" width="0.384698897574" x="412.416800267" y="40.0" /><rect fill="grey" height="20" width="0.161560005889" x="67.6320255641" y="40.0" /><rect fill="darkturquoise" height="20" width="0.262217680616" x="285.261658359" y="40.0" /><rect fill="darkorange" height="20" width="0.0712554791809" x="205.613059596" y="40.0" /><rect fill="darkcyan" height="20" width="0.0103655618669" x="333.218966893" y="40.0" /><rect fill="darkcyan" height="20" width="0.12641019939" x="333.561135952" y="40.0" /><rect fill="orange" height="20" width="0.1347336835" x="333.337128091" y="40.0" /><rect fill="darkcyan" height="20" width="0.00645520020453" x="330.077636817" y="40.0" /><rect fill="darkcyan" height="20" width="0.0422132851837" x="333.668906761" y="40.0" /><rect fill="honeydew" height="20" width="0.0734030746336" x="332.226976415" y="40.0" /><rect fill="darkcyan" height="20" width="0.273030140959" x="333.953978333" y="40.0" /><rect fill="darkcyan" height="20" width="0.035503601125" x="329.990907478" y="40.0" /><rect fill="darkcyan" height="20" width="0.0328904864268" x="332.627260897" y="40.0" /><rect fill="darkcyan" height="20" width="0.174867649387" x="332.732511695" y="40.0" /><rect fill="orange" height="20" width="0.14480131305" x="333.08497804" y="40.0" /><rect fill="indianred" height="20" width="0.0848176065338" x="327.541605899" y="40.0" /><rect fill="cyan" height="20" width="0.219631980036" x="248.422935624" y="40.0" /><rect fill="peru" height="20" width="0.537041622402" x="182.227973402" y="40.0" /><rect fill="paleturquoise" height="20" width="0.129135038707" x="442.249179045" y="40.0" /><rect fill="deeppink" height="20" width="0.141865438341" x="328.601947016" y="40.0" /><rect fill="blue" height="20" width="0.103841826367" x="407.542652386" y="40.0" /><rect fill="lightgreen" height="20" width="0.543589926455" x="445.65204404" y="40.0" /><rect fill="lightsalmon" height="20" width="0.0208118137364" x="51.8432575907" y="40.0" /><rect fill="darksalmon" height="20" width="0.947455803098" x="373.080678504" y="40.0" /><rect fill="purple" height="20" width="0.177995938717" x="445.42734721" y="40.0" /><rect fill="fuchsia" height="20" width="0.864152685844" x="305.591467262" y="40.0" /><rect fill="lightblue" height="20" width="0.916607394429" x="343.023969105" y="40.0" /><rect fill="purple" height="20" width="0.178219387955" x="163.513969387" y="40.0" /><rect fill="purple" height="20" width="0.265917006887" x="382.486662447" y="40.0" /><rect fill="purple" height="20" width="0.0864562342779" x="338.619635661" y="40.0" /><rect fill="palevioletred" height="20" width="0.145980628472" x="335.199763696" y="40.0" /><rect fill="darksalmon" height="20" width="0.140437845988" x="209.357882615" y="40.0" /><rect fill="purple" height="20" width="0.376214033459" x="259.36980689" y="40.0" /><rect fill="darksalmon" height="20" width="0.266183904588" x="65.4044476981" y="40.0" /><rect fill="darksalmon" height="20" width="0.0817017310504" x="446.974342146" y="40.0" /><rect fill="purple" height="20" width="0.842478109772" x="416.974289543" y="40.0" /><rect fill="lightsalmon" height="20" width="0.251256254115" x="355.616152972" y="40.0" /><rect fill="cornflowerblue" height="20" width="0.0250697631021" x="334.781255688" y="40.0" /><rect fill="cornflowerblue" height="20" width="0.133479884999" x="334.634710229" y="40.0" /></g></svg>